<?xml version="1.0" standalone="no"?>
<!DOCTYPE svg PUBLIC "-//W3C//DTD SVG 20010904//EN"
 "http://www.w3.org/TR/2001/REC-SVG-20010904/DTD/svg10.dtd">
<svg version="1.0" xmlns="http://www.w3.org/2000/svg"
 width="314.000000pt" height="280.000000pt" viewBox="0 0 314.000000 280.000000"
 preserveAspectRatio="xMidYMid meet">

<g transform="translate(0.000000,280.000000) scale(0.100000,-0.100000)"
fill="#000000" stroke="none">
<path d="M1490 2434 c-116 -20 -154 -30 -216 -60 -160 -76 -262 -234 -279
-436 -21 -246 -96 -430 -238 -586 -27 -30 -63 -85 -81 -121 -28 -60 -31 -75
-31 -166 0 -86 3 -107 25 -150 24 -49 95 -135 111 -135 5 0 -7 16 -26 35 -19
19 -48 61 -65 93 -26 52 -30 70 -30 141 0 65 5 94 27 146 14 36 28 64 29 62 2
-2 -6 -32 -17 -67 -29 -92 -23 -206 14 -283 29 -57 96 -127 123 -127 8 0 40
27 71 60 30 33 62 60 69 60 20 0 35 -44 39 -110 2 -30 6 -92 10 -137 5 -51 4
-88 -2 -95 -6 -7 -13 -32 -17 -56 -5 -35 -3 -44 11 -49 10 -3 50 -20 88 -38
48 -23 105 -38 180 -50 61 -10 119 -22 130 -26 12 -6 90 -4 195 5 155 12 188
18 285 51 61 21 121 44 135 52 l25 14 0 177 c0 192 9 272 29 272 16 0 94 -73
123 -114 24 -35 55 -31 107 15 46 40 75 88 92 152 23 85 18 155 -21 282 -3 11
0 9 6 -5 7 -14 19 -38 27 -55 8 -16 17 -69 20 -116 4 -78 2 -92 -23 -147 -15
-34 -36 -69 -47 -79 -11 -10 -25 -27 -30 -38 -7 -13 2 -8 24 13 20 19 48 59
64 90 26 52 29 66 28 157 0 87 -4 108 -27 160 -16 33 -49 84 -76 115 -65 74
-113 144 -146 209 -35 71 -82 223 -90 297 -27 244 -72 357 -183 455 -57 50
-159 103 -227 117 -61 13 -181 22 -215 16z m129 -587 c7 -7 3 -18 -9 -35 -29
-36 -25 -44 13 -26 33 16 35 15 76 -10 23 -15 47 -26 53 -24 6 2 -5 14 -25 26
-21 12 -37 26 -37 32 0 14 8 13 38 -9 15 -10 55 -31 89 -46 l62 -28 7 -56 c3
-31 13 -72 22 -91 l15 -35 13 60 c8 33 19 86 26 118 12 61 23 68 58 39 36 -29
39 -99 6 -167 -28 -56 -79 -105 -110 -105 -11 0 -25 -17 -38 -47 -23 -52 -55
-100 -101 -150 -28 -30 -29 -33 -25 -128 4 -112 11 -123 103 -150 30 -8 55
-19 55 -23 0 -4 -24 -36 -53 -71 -38 -47 -63 -68 -92 -78 -22 -7 -52 -20 -67
-28 -85 -49 -334 -16 -426 56 -32 24 -92 101 -92 116 0 7 27 20 60 30 87 24
103 45 108 147 l4 84 -56 73 c-31 40 -68 96 -81 125 -20 43 -28 51 -45 47 -34
-9 -104 70 -120 135 -14 58 -7 113 16 137 26 25 43 18 49 -22 11 -66 36 -176
42 -187 11 -17 22 27 22 95 1 61 3 67 24 73 13 3 56 23 95 45 85 46 95 41 18
-9 -30 -19 -53 -36 -51 -38 3 -4 75 35 120 64 20 13 30 14 60 4 46 -15 51 -10
20 20 l-24 23 39 54 c21 30 42 68 45 85 7 31 8 30 46 -42 21 -40 43 -78 48
-83z m29 8 c-3 -3 -9 2 -12 12 -6 14 -5 15 5 6 7 -7 10 -15 7 -18z"/>
<path d="M1707 1723 c-9 -8 -9 -98 0 -106 13 -13 33 16 33 48 0 53 -14 77 -33
58z"/>
<path d="M1354 1707 c-11 -29 0 -92 16 -92 11 0 15 12 15 49 0 49 -19 74 -31
43z"/>
</g>
</svg>
