<svg
              width="16"
              height="18"
              viewBox="0 0 16 18"
              fill="none"
              xmlns="http://www.w3.org/2000/svg"
            >
              <path
                d="M13.75 11.25V13.5H16V15H13.75V17.25H12.25V15H10V13.5H12.25V11.25H13.75ZM13.756 2.25C14.167 2.25 14.5 2.58375 14.5 2.99475V10.0065C14.0182 9.83632 13.5109 9.74958 13 9.75V3.75H1L1.00075 14.25L7.96975 7.28025C8.09872 7.15086 8.27051 7.07305 8.45283 7.06145C8.63515 7.04984 8.81542 7.10525 8.95975 7.21725L9.0295 7.281L11.689 9.9435C11.1075 10.1207 10.5679 10.4138 10.1027 10.8052C9.63755 11.1966 9.25646 11.6781 8.98244 12.2208C8.70841 12.7635 8.54712 13.356 8.50829 13.9627C8.46946 14.5693 8.55389 15.1776 8.7565 15.7507L0.244 15.75C0.0466101 15.7498 -0.142627 15.6712 -0.282133 15.5316C-0.421638 15.392 -0.5 15.2026 -0.5 15.0052V2.99475C-0.498627 2.79778 -0.419825 2.60926 -0.280615 2.46991C-0.141406 2.33056 0.0470352 2.25157 0.244 2.25H13.756ZM4 5.25C4.39782 5.25 4.77936 5.40804 5.06066 5.68934C5.34196 5.97064 5.5 6.35218 5.5 6.75C5.5 7.14782 5.34196 7.52936 5.06066 7.81066C4.77936 8.09196 4.39782 8.25 4 8.25C3.60218 8.25 3.22064 8.09196 2.93934 7.81066C2.65804 7.52936 2.5 7.14782 2.5 6.75C2.5 6.35218 2.65804 5.97064 2.93934 5.68934C3.22064 5.40804 3.60218 5.25 4 5.25Z"
                fill="#1657FF"
              />
            </svg>