<svg width="40" height="40" viewBox="0 0 40 40" fill="none" xmlns="http://www.w3.org/2000/svg">
<path fill-rule="evenodd" clip-rule="evenodd" d="M5 9.16671C5 5.94505 7.61167 3.33337 10.8333 3.33337H15.8333C19.055 3.33337 21.6667 5.94505 21.6667 9.16671V14.1667C21.6667 17.3884 19.055 20 15.8333 20H10.8333C7.61167 20 5 17.3884 5 14.1667V9.16671ZM10.8333 5.00004C8.53215 5.00004 6.66667 6.86552 6.66667 9.16671V14.1667C6.66667 16.4679 8.53215 18.3334 10.8333 18.3334H15.8333C18.1345 18.3334 20 16.4679 20 14.1667V9.16671C20 6.86552 18.1345 5.00004 15.8333 5.00004H10.8333Z" fill="#1657FF"/>
<path fill-rule="evenodd" clip-rule="evenodd" d="M5 25.8334C5 23.5322 6.86548 21.6667 9.16667 21.6667H14.1667C16.4679 21.6667 18.3333 23.5322 18.3333 25.8334V30.8334C18.3333 33.1346 16.4679 35.0001 14.1667 35.0001H9.16667C6.86548 35.0001 5 33.1346 5 30.8334V25.8334ZM9.16667 23.3334C7.78595 23.3334 6.66667 24.4527 6.66667 25.8334V30.8334C6.66667 32.2141 7.78595 33.3334 9.16667 33.3334H14.1667C15.5474 33.3334 16.6667 32.2141 16.6667 30.8334V25.8334C16.6667 24.4527 15.5474 23.3334 14.1667 23.3334H9.16667Z" fill="#1657FF"/>
<path fill-rule="evenodd" clip-rule="evenodd" d="M23.3334 7.50004C23.3334 5.19885 25.1989 3.33337 27.5 3.33337H32.5C34.8012 3.33337 36.6667 5.19885 36.6667 7.50004V12.5C36.6667 14.8012 34.8012 16.6667 32.5 16.6667H27.5C25.1989 16.6667 23.3334 14.8012 23.3334 12.5V7.50004ZM27.5 5.00004C26.1193 5.00004 25 6.11933 25 7.50004V12.5C25 13.8808 26.1193 15 27.5 15H32.5C33.8808 15 35 13.8808 35 12.5V7.50004C35 6.11933 33.8808 5.00004 32.5 5.00004H27.5Z" fill="#FF16A2"/>
<path fill-rule="evenodd" clip-rule="evenodd" d="M20 24.1667C20 20.945 22.6117 18.3334 25.8333 18.3334H30.8333C34.055 18.3334 36.6667 20.945 36.6667 24.1667V29.1667C36.6667 32.3884 34.055 35 30.8333 35H25.8333C22.6117 35 20 32.3884 20 29.1667V24.1667ZM25.8333 20C23.5321 20 21.6667 21.8655 21.6667 24.1667V29.1667C21.6667 31.4679 23.5321 33.3334 25.8333 33.3334H30.8333C33.1345 33.3334 35 31.4679 35 29.1667V24.1667C35 21.8655 33.1345 20 30.8333 20H25.8333Z" fill="#1657FF"/>
</svg>
