<svg width="32" height="32" viewBox="0 0 32 32" fill="none" xmlns="http://www.w3.org/2000/svg">
<path fill-rule="evenodd" clip-rule="evenodd" d="M11.2204 1.55376C12.0018 0.772361 13.0616 0.333374 14.1667 0.333374C15.2717 0.333374 16.3315 0.772361 17.1129 1.55376C17.6949 2.13575 18.087 2.87217 18.2492 3.66671H22.5C25.7217 3.66671 28.3333 6.27838 28.3333 9.50004V13.7509C29.1279 13.9131 29.8643 14.3051 30.4463 14.8871C31.2277 15.6685 31.6667 16.7283 31.6667 17.8334C31.6667 18.9384 31.2277 19.9983 30.4463 20.7797C29.8643 21.3616 29.1279 21.7537 28.3333 21.9159V26.1667C28.3333 29.3884 25.7217 32 22.5 32H17.5C17.0398 32 16.6667 31.6269 16.6667 31.1667C16.6667 30.5037 16.4033 29.8678 15.9344 29.3989C15.4656 28.9301 14.8297 28.6667 14.1667 28.6667C13.5036 28.6667 12.8677 28.9301 12.3989 29.3989C11.9301 29.8678 11.6667 30.5037 11.6667 31.1667C11.6667 31.6269 11.2936 32 10.8333 32H5.83333C2.61167 32 0 29.3884 0 26.1667V21.1667C0 20.7065 0.373096 20.3334 0.833333 20.3334C1.49637 20.3334 2.13226 20.07 2.6011 19.6011L3.19036 20.1904L2.6011 19.6011C3.06994 19.1323 3.33333 18.4964 3.33333 17.8334C3.33333 17.1703 3.06994 16.5344 2.6011 16.0656C2.13226 15.5968 1.49637 15.3334 0.833333 15.3334C0.373096 15.3334 0 14.9603 0 14.5V9.50004C0 6.27838 2.61167 3.66671 5.83333 3.66671L10.0842 3.66671C10.2464 2.87217 10.6384 2.13575 11.2204 1.55376ZM14.1667 2.00004C13.5036 2.00004 12.8677 2.26343 12.3989 2.73227C11.9301 3.20111 11.6667 3.837 11.6667 4.50004C11.6667 4.96028 11.2936 5.33337 10.8333 5.33337L5.83333 5.33337C3.53215 5.33337 1.66667 7.19885 1.66667 9.50004V13.7509C2.4612 13.9131 3.19763 14.3051 3.77961 14.8871C4.56101 15.6685 5 16.7283 5 17.8334C5 18.9384 4.56101 19.9983 3.77961 20.7797C3.19763 21.3616 2.4612 21.7537 1.66667 21.9159V26.1667C1.66667 28.4679 3.53215 30.3334 5.83333 30.3334H10.0842C10.2464 29.5388 10.6384 28.8024 11.2204 28.2204L11.8096 28.8097L11.2204 28.2204C12.0018 27.439 13.0616 27 14.1667 27C15.2717 27 16.3315 27.439 17.1129 28.2204C17.6949 28.8024 18.087 29.5388 18.2492 30.3334H22.5C24.8012 30.3334 26.6667 28.4679 26.6667 26.1667V21.1667C26.6667 20.7065 27.0398 20.3334 27.5 20.3334C28.163 20.3334 28.7989 20.07 29.2678 19.6011C29.7366 19.1323 30 18.4964 30 17.8334C30 17.1703 29.7366 16.5344 29.2678 16.0656C28.7989 15.5968 28.163 15.3334 27.5 15.3334C27.0398 15.3334 26.6667 14.9603 26.6667 14.5V9.50004C26.6667 7.19885 24.8012 5.33337 22.5 5.33337H17.5C17.0398 5.33337 16.6667 4.96028 16.6667 4.50004C16.6667 3.837 16.4033 3.20111 15.9344 2.73227L16.5237 2.14302L15.9344 2.73227C15.4656 2.26343 14.8297 2.00004 14.1667 2.00004Z" fill="#1657FF"/>
</svg>
