<svg width="30" height="30" viewBox="0 0 23 23" fill="none" xmlns="http://www.w3.org/2000/svg">
<path d="M12.0223 11.6447C12.0223 12.6548 12.8417 13.4742 13.8518 13.4742H17.2404C16.6587 15.364 15.227 16.7967 13.1579 17.1791C9.86988 17.7876 6.58183 15.3918 6.2675 12.0625C5.94167 8.61734 8.64321 5.71838 12.0223 5.71838C12.9825 5.71838 13.8872 5.95413 14.6836 6.36908C15.409 6.74763 16.2965 6.59525 16.8743 6.01642C17.7886 5.10217 17.5461 3.56021 16.3971 2.96988C14.789 2.14379 12.9174 1.75854 10.9423 1.97513C6.55021 2.45621 2.9785 6.02504 2.49742 10.4171C1.86396 16.1958 6.37196 21.0833 12.0223 21.0833C18.125 21.0833 20.6205 16.7565 21.1255 13.0353C21.3574 11.3294 19.9928 9.82292 18.2716 9.821L13.8537 9.81525C12.8426 9.81334 12.0223 10.6327 12.0223 11.6447Z" fill="white"/>
</svg>
