<?xml version="1.0" standalone="no"?>
<!DOCTYPE svg PUBLIC "-//W3C//DTD SVG 20010904//EN"
 "http://www.w3.org/TR/2001/REC-SVG-20010904/DTD/svg10.dtd">
<svg version="1.0" xmlns="http://www.w3.org/2000/svg"
 width="90" height="90" viewBox="0 0 600.000000 600.000000"
 preserveAspectRatio="xMidYMid meet">

<g transform="translate(0.000000,600.000000) scale(0.100000,-0.100000)"
fill="#000000" stroke="none">
<path d="M2950 5154 c-30 -8 -80 -31 -110 -52 l-56 -38 -43 19 c-74 32 -137
26 -228 -23 -197 -105 -396 -297 -478 -459 -39 -79 -51 -136 -65 -328 -14
-192 -31 -268 -91 -398 -315 -681 -360 -936 -208 -1164 123 -184 410 -332 749
-386 58 -9 115 -18 128 -21 21 -4 22 -9 22 -94 l0 -90 -312 0 c-338 0 -369 -4
-477 -56 -73 -36 -179 -142 -215 -215 -54 -112 -56 -129 -56 -591 l0 -428
1490 0 1490 0 0 428 c0 462 -2 479 -56 591 -36 73 -142 179 -215 215 -108 52
-139 56 -476 56 l-313 0 0 89 0 88 108 18 c372 60 665 207 791 396 151 226
104 499 -199 1143 -70 149 -123 282 -180 451 -89 263 -147 395 -214 489 -113
158 -369 315 -589 360 -92 19 -125 19 -197 0z m-145 -825 c22 -6 61 -24 87
-41 l48 -30 72 30 c207 86 367 60 448 -74 34 -58 111 -240 126 -300 6 -24 5
-26 -12 -20 -37 15 -153 19 -198 6 -56 -15 -85 -44 -69 -68 7 -12 21 -16 44
-14 19 2 63 5 98 8 46 4 75 1 107 -11 24 -9 48 -14 54 -10 5 3 15 -6 20 -20
20 -52 16 -53 -72 -34 -138 30 -349 42 -633 36 -268 -6 -384 -19 -505 -56 -36
-11 -66 -18 -68 -16 -6 6 103 322 138 400 45 100 86 161 126 186 63 39 119 47
189 28z m594 -577 c22 -8 18 -10 -30 -15 -85 -10 -145 -35 -197 -82 l-48 -44
-85 1 c-46 0 -88 -1 -94 -3 -5 -1 -29 16 -52 38 -46 45 -128 81 -206 90 -66 8
-50 17 46 25 115 9 637 2 666 -10z m-666 -68 c66 -23 112 -61 142 -116 59
-107 25 -262 -73 -335 -119 -90 -326 -83 -413 14 -83 92 -115 250 -70 349 33
74 159 118 304 108 38 -3 87 -12 110 -20z m867 6 c61 -16 67 -28 106 -175 l36
-141 -23 -49 c-53 -113 -144 -161 -288 -153 -160 10 -267 108 -279 255 -11
140 65 234 218 270 57 13 167 10 230 -7z m-501 -136 c2 -2 5 -41 6 -86 4 -149
65 -250 185 -307 72 -34 213 -42 289 -16 58 19 142 90 161 135 7 17 14 29 17
27 2 -2 16 -64 32 -136 l30 -133 -34 -77 c-66 -155 -176 -308 -289 -402 -33
-28 -66 -54 -73 -56 -9 -4 -13 -28 -13 -76 0 -60 -4 -75 -25 -103 -54 -71
-236 -133 -392 -134 -145 0 -310 55 -372 126 -29 33 -31 39 -31 117 l0 82 -54
44 c-108 85 -225 238 -298 389 -58 117 -57 97 -6 316 l32 139 18 -54 c25 -75
82 -146 148 -183 53 -30 60 -31 170 -31 131 0 176 14 248 80 65 58 95 130 101
244 l6 96 30 6 c28 6 105 1 114 -7z"/>
<path d="M2535 3911 c-16 -4 -47 -16 -67 -25 -31 -15 -38 -24 -38 -46 0 -36
28 -47 69 -25 47 24 116 29 177 15 48 -12 57 -11 70 2 23 23 9 54 -29 68 -42
15 -144 21 -182 11z"/>
<path d="M2480 3577 c0 -11 -7 -13 -22 -9 -17 4 -20 2 -15 -11 4 -11 1 -17 -8
-17 -23 0 -18 -18 10 -36 17 -11 25 -26 25 -44 0 -64 80 -113 142 -87 45 19
60 39 65 91 5 38 1 47 -25 77 -28 31 -35 34 -89 35 -32 0 -64 4 -71 8 -7 4
-12 1 -12 -7z"/>
<path d="M3507 3584 c-4 -4 -35 -8 -68 -8 -56 -1 -63 -4 -91 -35 -26 -30 -30
-39 -25 -77 5 -52 20 -72 65 -91 62 -26 142 23 142 87 0 18 8 33 25 44 28 18
33 36 10 36 -9 0 -12 6 -8 17 5 13 2 15 -15 11 -14 -4 -22 -1 -24 9 -2 8 -6
11 -11 7z"/>
<path d="M2820 2925 c-32 -38 23 -151 90 -186 47 -26 129 -25 180 1 91 46 136
200 59 200 -12 0 -19 -9 -21 -27 l-3 -28 -125 0 -125 0 -3 28 c-4 30 -31 37
-52 12z"/>
</g>
</svg>
