<svg width="40" height="40" viewBox="0 0 40 40" fill="none" xmlns="http://www.w3.org/2000/svg">
<path fill-rule="evenodd" clip-rule="evenodd" d="M29.1667 5C29.6269 5 30 5.3731 30 5.83333L30 9.16667C30 9.6269 29.6269 10 29.1667 10C28.7064 10 28.3333 9.6269 28.3333 9.16667L28.3333 5.83333C28.3333 5.3731 28.7064 5 29.1667 5Z" fill="#FF16A2"/>
<path fill-rule="evenodd" clip-rule="evenodd" d="M14.1667 5C14.6269 5 15 5.3731 15 5.83333L15 9.16667C15 9.6269 14.6269 10 14.1667 10C13.7064 10 13.3333 9.6269 13.3333 9.16667L13.3333 5.83333C13.3333 5.3731 13.7064 5 14.1667 5Z" fill="#FF16A2"/>
<path fill-rule="evenodd" clip-rule="evenodd" d="M5 14.1667C5 10.945 7.61167 8.33337 10.8333 8.33337H30.8333C34.055 8.33337 36.6667 10.945 36.6667 14.1667V27.5C36.6667 30.7217 34.055 33.3334 30.8333 33.3334H10.8333C7.61167 33.3334 5 30.7217 5 27.5V14.1667ZM10.8333 10C8.53215 10 6.66667 11.8655 6.66667 14.1667V27.5C6.66667 29.8012 8.53215 31.6667 10.8333 31.6667H30.8333C33.1345 31.6667 35 29.8012 35 27.5V14.1667C35 11.8655 33.1345 10 30.8333 10H10.8333Z" fill="#1657FF"/>
<path fill-rule="evenodd" clip-rule="evenodd" d="M5 15.8333C5 15.3731 5.3731 15 5.83333 15H35.8333C36.2936 15 36.6667 15.3731 36.6667 15.8333C36.6667 16.2936 36.2936 16.6667 35.8333 16.6667H5.83333C5.3731 16.6667 5 16.2936 5 15.8333Z" fill="#1657FF"/>
<path fill-rule="evenodd" clip-rule="evenodd" d="M10 20.8333C10 20.3731 10.3731 20 10.8333 20H14.1667C14.6269 20 15 20.3731 15 20.8333C15 21.2936 14.6269 21.6667 14.1667 21.6667H10.8333C10.3731 21.6667 10 21.2936 10 20.8333Z" fill="#FF16A2"/>
<path fill-rule="evenodd" clip-rule="evenodd" d="M10 27.5C10 27.0397 10.3731 26.6666 10.8333 26.6666H14.1667C14.6269 26.6666 15 27.0397 15 27.5C15 27.9602 14.6269 28.3333 14.1667 28.3333H10.8333C10.3731 28.3333 10 27.9602 10 27.5Z" fill="#FF16A2"/>
<path fill-rule="evenodd" clip-rule="evenodd" d="M18.3334 20.8333C18.3334 20.3731 18.7065 20 19.1667 20H22.5C22.9603 20 23.3334 20.3731 23.3334 20.8333C23.3334 21.2936 22.9603 21.6667 22.5 21.6667H19.1667C18.7065 21.6667 18.3334 21.2936 18.3334 20.8333Z" fill="#FF16A2"/>
<path fill-rule="evenodd" clip-rule="evenodd" d="M18.3334 27.5C18.3334 27.0397 18.7065 26.6666 19.1667 26.6666H22.5C22.9603 26.6666 23.3334 27.0397 23.3334 27.5C23.3334 27.9602 22.9603 28.3333 22.5 28.3333H19.1667C18.7065 28.3333 18.3334 27.9602 18.3334 27.5Z" fill="#FF16A2"/>
<path fill-rule="evenodd" clip-rule="evenodd" d="M26.6666 20.8333C26.6666 20.3731 27.0397 20 27.5 20H30.8333C31.2935 20 31.6666 20.3731 31.6666 20.8333C31.6666 21.2936 31.2935 21.6667 30.8333 21.6667H27.5C27.0397 21.6667 26.6666 21.2936 26.6666 20.8333Z" fill="#FF16A2"/>
<path fill-rule="evenodd" clip-rule="evenodd" d="M26.6666 27.5C26.6666 27.0397 27.0397 26.6666 27.5 26.6666H30.8333C31.2935 26.6666 31.6666 27.0397 31.6666 27.5C31.6666 27.9602 31.2935 28.3333 30.8333 28.3333H27.5C27.0397 28.3333 26.6666 27.9602 26.6666 27.5Z" fill="#FF16A2"/>
</svg>
