<svg width="25" height="25" viewBox="0 0 14 14" fill="none" xmlns="http://www.w3.org/2000/svg">
<path d="M10.518 9.69321L13.0163 12.1915L12.1913 13.0164L9.69309 10.5182C8.79482 11.2368 7.65563 11.6667 6.41663 11.6667C3.51863 11.6667 1.16663 9.31475 1.16663 6.41675C1.16663 3.51875 3.51863 1.16675 6.41663 1.16675C9.31463 1.16675 11.6666 3.51875 11.6666 6.41675C11.6666 7.65575 11.2367 8.79494 10.518 9.69321ZM9.3477 9.26038C10.061 8.52526 10.5 7.52251 10.5 6.41675C10.5 4.16071 8.67267 2.33341 6.41663 2.33341C4.16058 2.33341 2.33329 4.16071 2.33329 6.41675C2.33329 8.67279 4.16058 10.5001 6.41663 10.5001C7.52239 10.5001 8.52514 10.0611 9.26026 9.34782L9.3477 9.26038Z" fill="#2F2E41"/>
</svg>
