<svg width="25" height="25" viewBox="0 0 13 13" fill="none" xmlns="http://www.w3.org/2000/svg">
<path d="M9.51804 8.69321L12.0163 11.1915L11.1913 12.0164L8.69309 9.51816C7.79482 10.2368 6.65563 10.6667 5.41663 10.6667C2.51863 10.6667 0.166626 8.31475 0.166626 5.41675C0.166626 2.51875 2.51863 0.166748 5.41663 0.166748C8.31463 0.166748 10.6666 2.51875 10.6666 5.41675C10.6666 6.65575 10.2367 7.79494 9.51804 8.69321ZM8.3477 8.26038C9.061 7.52526 9.49996 6.52251 9.49996 5.41675C9.49996 3.16071 7.67267 1.33341 5.41663 1.33341C3.16058 1.33341 1.33329 3.16071 1.33329 5.41675C1.33329 7.67279 3.16058 9.50008 5.41663 9.50008C6.52239 9.50008 7.52514 9.06112 8.26026 8.34782L8.3477 8.26038Z" fill="white"/>
</svg>
