<svg width="33" height="32" viewBox="0 0 33 32" fill="none" xmlns="http://www.w3.org/2000/svg">
<path d="M17.4448 1.37224C15.2561 1.31495 13.0849 1.76423 11.1083 2.6835C8.74003 3.77288 6.72921 5.48611 5.3011 7.63129C3.87299 9.77647 3.084 12.2689 3.0225 14.8294C2.96621 16.9705 3.42772 19.095 4.36944 21.0296L1 30.2027L10.5258 27.3435C12.4568 28.355 14.6043 28.9063 16.7933 28.9525C19.4107 29.0133 21.993 28.3601 24.2509 27.0659C26.5088 25.7718 28.3532 23.8878 29.5774 21.6251C30.6094 19.7371 31.1707 17.6368 31.2156 15.4954L31.2348 14.6842C31.1239 11.2981 29.7404 8.06968 27.349 5.61708C24.9575 3.16448 21.7263 1.66004 18.274 1.39183L17.4448 1.37224Z" stroke="#1657FF" stroke-width="2" stroke-linecap="round" stroke-linejoin="round"/>
<path d="M9.91038 13.9902C10.8664 13.9954 11.6371 14.7746 11.6319 15.7306C11.6266 16.6866 10.8474 17.4574 9.89138 17.4521C8.93539 17.4469 8.16465 16.6676 8.1699 15.7116C8.17514 14.7556 8.95438 13.9849 9.91038 13.9902Z" fill="#FF16A2"/>
<path d="M16.8342 14.0282C17.7902 14.0335 18.5609 14.8127 18.5557 15.7687C18.5504 16.7247 17.7712 17.4955 16.8152 17.4902C15.8592 17.485 15.0885 16.7057 15.0937 15.7497C15.099 14.7937 15.8782 14.023 16.8342 14.0282Z" fill="#FF16A2"/>
<path d="M23.7583 14.0662C24.7143 14.0715 25.485 14.8507 25.4798 15.8067C25.4745 16.7627 24.6953 17.5334 23.7393 17.5282C22.7833 17.5229 22.0126 16.7437 22.0178 15.7877C22.023 14.8317 22.8023 14.061 23.7583 14.0662Z" fill="#FF16A2"/>
</svg>
