<svg width="40" height="40" viewBox="0 0 40 40" fill="none" xmlns="http://www.w3.org/2000/svg">
<path d="M22.4999 20.8703C22.4999 22.7113 21.0075 24.2037 19.1666 24.2037C17.3256 24.2037 15.8333 22.7113 15.8333 20.8703C15.8333 19.0294 17.3256 17.537 19.1666 17.537C21.0075 17.537 22.4999 19.0294 22.4999 20.8703Z" fill="#FF16A2"/>
<path fill-rule="evenodd" clip-rule="evenodd" d="M26.0406 13.5598C26.3826 13.2518 26.9096 13.2794 27.2175 13.6214C28.7483 15.3216 29.7016 17.4627 29.9408 19.738C30.1799 22.0132 29.6926 24.3057 28.5487 26.287C28.3186 26.6856 27.8089 26.8222 27.4104 26.592C27.0118 26.3619 26.8752 25.8523 27.1054 25.4537C28.0733 23.7772 28.4856 21.8374 28.2832 19.9122C28.0809 17.987 27.2743 16.1752 25.9789 14.7367C25.671 14.3946 25.6986 13.8677 26.0406 13.5598Z" fill="#1657FF"/>
<path fill-rule="evenodd" clip-rule="evenodd" d="M31.4231 10.2141C31.7651 9.90609 32.292 9.93371 32.6 10.2757C34.8373 12.7606 36.2306 15.8899 36.5801 19.2153C36.9296 22.5406 36.2174 25.8913 34.5456 28.787C34.3155 29.1855 33.8058 29.3221 33.4072 29.092C33.0086 28.8619 32.8721 28.3522 33.1022 27.9536C34.5981 25.3627 35.2353 22.3648 34.9226 19.3895C34.6098 16.4142 33.3632 13.6142 31.3614 11.3909C31.0534 11.0489 31.081 10.522 31.4231 10.2141Z" fill="#1657FF"/>
<path fill-rule="evenodd" clip-rule="evenodd" d="M12.2926 13.5598C11.9506 13.2518 11.4237 13.2794 11.1157 13.6214C9.58491 15.3216 8.63162 17.4627 8.39248 19.738C8.15334 22.0132 8.64064 24.3057 9.78453 26.287C10.0146 26.6856 10.5243 26.8222 10.9229 26.592C11.3215 26.3619 11.458 25.8523 11.2279 25.4537C10.26 23.7772 9.84767 21.8374 10.05 19.9122C10.2524 17.987 11.059 16.1752 12.3543 14.7367C12.6623 14.3946 12.6347 13.8677 12.2926 13.5598Z" fill="#1657FF"/>
<path fill-rule="evenodd" clip-rule="evenodd" d="M6.91018 10.2141C6.56816 9.90609 6.04124 9.93371 5.73329 10.2757C3.49593 12.7606 2.10266 15.8899 1.75315 19.2153C1.40364 22.5406 2.11584 25.8913 3.78768 28.787C4.01779 29.1855 4.52745 29.3221 4.92603 29.092C5.32461 28.8619 5.46117 28.3522 5.23105 27.9536C3.7352 25.3627 3.09797 22.3648 3.41068 19.3895C3.7234 16.4142 4.97002 13.6142 6.97186 11.3909C7.27982 11.0489 7.2522 10.522 6.91018 10.2141Z" fill="#1657FF"/>
</svg>
