<svg width="30" height="30" viewBox="0 0 30 30" fill="none" xmlns="http://www.w3.org/2000/svg">
<path fill-rule="evenodd" clip-rule="evenodd" d="M12.7263 23.8937C12.9921 23.6735 13.3861 23.7105 13.6063 23.9763C13.8833 24.3107 14.2058 24.5683 14.5515 24.7411C14.8967 24.9137 15.261 25 15.625 25C15.989 25 16.3534 24.9137 16.6985 24.7411C17.0442 24.5683 17.3667 24.3107 17.6437 23.9763C17.8639 23.7105 18.2579 23.6735 18.5237 23.8937C18.7896 24.1139 18.8265 24.5079 18.6063 24.7737C18.2267 25.2319 17.7697 25.6031 17.2575 25.8592C16.7447 26.1156 16.1896 26.25 15.625 26.25C15.0604 26.25 14.5053 26.1156 13.9925 25.8592C13.4803 25.6031 13.0233 25.2319 12.6437 24.7737C12.4235 24.5079 12.4605 24.1139 12.7263 23.8937Z" fill="#FF16A2"/>
<path fill-rule="evenodd" clip-rule="evenodd" d="M15.625 2.5C15.9702 2.5 16.25 2.77982 16.25 3.125V4.375C16.25 4.72018 15.9702 5 15.625 5C15.2798 5 15 4.72018 15 4.375V3.125C15 2.77982 15.2798 2.5 15.625 2.5Z" fill="#FF16A2"/>
<path fill-rule="evenodd" clip-rule="evenodd" d="M7.5 11.875C7.5 7.38769 11.1377 3.75 15.625 3.75C20.1123 3.75 23.75 7.38769 23.75 11.875V16.7275C23.75 17.3472 24.1002 17.9138 24.6545 18.191L25.0504 18.3889C25.7856 18.7565 26.25 19.5079 26.25 20.3299C26.25 21.5284 25.2784 22.5 24.0799 22.5H7.17008C5.97158 22.5 5 21.5284 5 20.3299C5 19.5079 5.4644 18.7565 6.19959 18.3889L6.59549 18.191C7.14983 17.9138 7.5 17.3472 7.5 16.7275V11.875ZM15.625 5C11.828 5 8.75 8.07804 8.75 11.875V16.7275C8.75 17.8207 8.13233 18.8201 7.15451 19.309L6.75861 19.507C6.4469 19.6628 6.25 19.9814 6.25 20.3299C6.25 20.8381 6.66194 21.25 7.17008 21.25H24.0799C24.5881 21.25 25 20.8381 25 20.3299C25 19.9814 24.8031 19.6628 24.4914 19.507L24.0955 19.309C23.1177 18.8201 22.5 17.8207 22.5 16.7275V11.875C22.5 8.07804 19.422 5 15.625 5Z" fill="#1657FF"/>
</svg>