<svg width="189" height="181" viewBox="0 0 189 181" fill="none" xmlns="http://www.w3.org/2000/svg">
<rect x="2.5" y="2.5" width="183.542" height="176" rx="88" stroke="#1657FF" stroke-width="5"/>
<g clip-path="url(#clip0_68_1947)">
<path d="M90.2512 41.2173C102.589 41.2173 114.422 46.1185 123.146 54.8427C131.87 63.5669 136.771 75.3994 136.771 87.7373C136.783 94.9692 135.101 102.103 131.86 108.569L143.921 120.634C144.839 121.553 145.354 122.798 145.354 124.096C145.354 125.395 144.839 126.64 143.921 127.558L130.072 141.407C129.154 142.325 127.909 142.84 126.61 142.84C125.312 142.84 124.067 142.325 123.148 141.407L111.082 129.346C104.617 132.587 97.4832 134.269 90.2512 134.257C77.9134 134.257 66.0808 129.356 57.3566 120.632C48.6324 111.908 43.7312 100.075 43.7312 87.7373C43.7312 75.3994 48.6324 63.5669 57.3566 54.8427C66.0808 46.1185 77.9134 41.2173 90.2512 41.2173ZM116.219 106.776L109.295 113.7L126.61 131.011L133.534 124.087L116.219 106.776ZM125.347 76.881L79.3949 122.833C82.8227 123.891 86.4709 124.464 90.2512 124.464C94.8425 124.47 99.394 123.613 103.669 121.937L98.9089 117.167C97.9908 116.249 97.4751 115.004 97.4751 113.705C97.4751 112.407 97.9908 111.162 98.9089 110.243L112.757 96.3949C113.675 95.4769 114.921 94.9612 116.219 94.9612C117.518 94.9612 118.763 95.4769 119.681 96.3949L124.451 101.155C126.127 96.8801 126.984 92.3286 126.978 87.7373C126.978 83.957 126.405 80.3137 125.347 76.881Z" fill="#1657FF"/>
</g>
<defs>
<clipPath id="clip0_68_1947">
<rect width="117.524" height="117.524" fill="white" transform="translate(33.9375 31.4236)"/>
</clipPath>
</defs>
</svg>
