 <svg
                className="rakita"
                width="191"
                height="183"
                viewBox="0 0 191 183"
                fill="none"
                xmlns="http://www.w3.org/2000/svg"
              >
                <rect
                  x="2.5"
                  y="2.5"
                  width="185.625"
                  height="178"
                  rx="89"
                  stroke="#FF2727"
                  stroke-width="5"
                />
                <g clip-path="url(#clip0_68_1948)">
                  <path
                    d="M92.3074 144.928C105.849 144.928 118.836 139.549 128.411 129.974C137.986 120.398 143.366 107.411 143.366 93.8698C143.378 85.9324 141.532 78.1023 137.975 71.0064L151.213 57.7635C152.22 56.7556 152.786 55.3888 152.786 53.9637C152.786 52.5386 152.22 51.1718 151.213 50.1639L136.013 34.9646C135.005 33.957 133.639 33.391 132.214 33.391C130.788 33.391 129.422 33.957 128.414 34.9646L115.171 48.2022C108.075 44.6452 100.245 42.7991 92.3074 42.8115C78.7659 42.8115 65.779 48.1908 56.2037 57.7661C46.6284 67.3414 41.249 80.3283 41.249 93.8698C41.249 107.411 46.6284 120.398 56.2037 129.974C65.779 139.549 78.7659 144.928 92.3074 144.928ZM120.809 72.9735L113.209 65.3739L132.214 46.3748L139.813 53.9744L120.809 72.9735ZM130.827 105.785L80.392 55.3503C84.1542 54.1894 88.1582 53.5606 92.3074 53.5606C97.3466 53.5539 102.342 54.4947 107.034 56.3339L101.81 61.5687C100.802 62.5766 100.236 63.9434 100.236 65.3685C100.236 66.7937 100.802 68.1605 101.81 69.1683L117.009 84.3676C118.017 85.3752 119.384 85.9412 120.809 85.9412C122.234 85.9412 123.601 85.3752 124.609 84.3676L129.843 79.1435C131.683 83.8351 132.623 88.8307 132.617 93.8698C132.617 98.019 131.988 102.018 130.827 105.785ZM92.3074 134.179C83.6419 134.18 75.2067 131.388 68.2526 126.218C61.2985 121.048 56.1957 113.774 53.7008 105.476C51.2058 97.1769 51.4516 88.2953 54.4016 80.1473C57.3516 71.9994 62.8488 65.019 70.0782 60.2412L125.936 116.099C122.264 121.66 117.27 126.222 111.401 129.378C105.531 132.533 98.971 134.183 92.3074 134.179Z"
                    fill="#FF1010"
                  />
                </g>
                <defs>
                  <clipPath id="clip0_68_1948">
                    <rect
                      width="128.99"
                      height="128.99"
                      fill="white"
                      transform="matrix(1 0 0 -1 30.5 155.677)"
                    />
                  </clipPath>
                </defs>
              </svg>