<svg width="30" height="30" viewBox="0 0 30 30" fill="none" xmlns="http://www.w3.org/2000/svg">
<path fill-rule="evenodd" clip-rule="evenodd" d="M13.75 3.75C8.91751 3.75 5 7.66751 5 12.5C5 17.3325 8.91751 21.25 13.75 21.25C18.5825 21.25 22.5 17.3325 22.5 12.5C22.5 7.66751 18.5825 3.75 13.75 3.75ZM3.75 12.5C3.75 6.97715 8.22715 2.5 13.75 2.5C19.2728 2.5 23.75 6.97715 23.75 12.5C23.75 18.0228 19.2728 22.5 13.75 22.5C8.22715 22.5 3.75 18.0228 3.75 12.5Z" fill="#1657FF"/>
<path fill-rule="evenodd" clip-rule="evenodd" d="M21.4331 20.1831C21.6771 19.939 22.0729 19.939 22.3169 20.1831L27.3169 25.1831C27.561 25.4271 27.561 25.8229 27.3169 26.0669C27.0729 26.311 26.6771 26.311 26.4331 26.0669L21.4331 21.0669C21.189 20.8229 21.189 20.4271 21.4331 20.1831Z" fill="#FF16A2"/>
</svg>
