<svg width="40" height="40" viewBox="0 0 40 40" fill="none" xmlns="http://www.w3.org/2000/svg">
<path fill-rule="evenodd" clip-rule="evenodd" d="M19.1665 13.3334C15.9448 13.3334 13.3332 15.9451 13.3332 19.1667C13.3332 22.3884 15.9448 25.0001 19.1665 25.0001C22.3882 25.0001 24.9998 22.3884 24.9998 19.1667C24.9998 15.9451 22.3882 13.3334 19.1665 13.3334ZM11.6665 19.1667C11.6665 15.0246 15.0244 11.6667 19.1665 11.6667C23.3086 11.6667 26.6665 15.0246 26.6665 19.1667C26.6665 23.3089 23.3086 26.6667 19.1665 26.6667C15.0244 26.6667 11.6665 23.3089 11.6665 19.1667Z" fill="#FF16A2"/>
<path fill-rule="evenodd" clip-rule="evenodd" d="M15.8422 4.77666C17.6407 2.85228 20.6925 2.85228 22.491 4.77666L23.4229 5.77377L22.8141 6.34279L23.4229 5.77377C23.9914 6.38202 24.795 6.71489 25.6271 6.68677L26.9912 6.64068C29.6237 6.55171 31.7816 8.70962 31.6926 11.3421L31.6465 12.7062C31.6184 13.5382 31.9513 14.3419 32.5595 14.9104L33.5566 15.8423C35.481 17.6408 35.481 20.6926 33.5566 22.4911L32.5595 23.4231C31.9513 23.9915 31.6184 24.7952 31.6465 25.6272L31.6926 26.9913C31.7816 29.6238 29.6237 31.7817 26.9912 31.6927L25.6271 31.6466C24.795 31.6185 23.9914 31.9514 23.4229 32.5596L22.491 33.5568C20.6925 35.4811 17.6407 35.4811 15.8422 33.5568L14.9102 32.5596C14.3417 31.9514 13.5381 31.6185 12.706 31.6466L11.342 31.6927C8.7095 31.7817 6.55159 29.6238 6.64055 26.9913L6.68665 25.6272C6.71477 24.7952 6.3819 23.9915 5.77365 23.4231L4.77653 22.4911C2.85216 20.6926 2.85216 17.6408 4.77653 15.8423L5.33013 16.4346L4.77653 15.8423L5.77365 14.9104C6.3819 14.3419 6.71477 13.5382 6.68665 12.7062L6.64055 11.3421C6.55159 8.70962 8.7095 6.55171 11.342 6.64068L12.706 6.68677C13.5381 6.71489 14.3417 6.38202 14.9102 5.77377L15.8422 4.77666ZM21.2734 5.91469C20.1336 4.69516 18.1996 4.69516 17.0598 5.91469L16.1279 6.9118C15.2308 7.8716 13.9627 8.39686 12.6498 8.35249L11.2857 8.30639C9.61742 8.25001 8.24989 9.61754 8.30627 11.2858L8.35237 12.6499C8.39674 13.9629 7.87148 15.231 6.91168 16.128L5.91457 17.0599C4.69504 18.1997 4.69504 20.1337 5.91457 21.2735L6.91168 22.2054C7.87148 23.1025 8.39674 24.3706 8.35237 25.6835L8.30627 27.0476C8.24989 28.7159 9.61742 30.0834 11.2857 30.027L12.6498 29.9809C13.9627 29.9366 15.2308 30.4618 16.1279 31.4216L17.0598 32.4187C18.1996 33.6383 20.1336 33.6383 21.2734 32.4187L22.2053 31.4216C23.1023 30.4618 24.3704 29.9366 25.6834 29.9809L27.0475 30.027C28.7158 30.0834 30.0833 28.7159 30.0269 27.0476L29.9808 25.6835C29.9364 24.3706 30.4617 23.1025 31.4215 22.2054L32.4186 21.2735C33.6381 20.1337 33.6381 18.1997 32.4186 17.0599L31.4215 16.128C30.4617 15.231 29.9364 13.9629 29.9808 12.6499L30.0269 11.2858C30.0833 9.61754 28.7158 8.25001 27.0475 8.30639L25.6834 8.35249C24.3704 8.39686 23.1023 7.8716 22.2053 6.9118L21.2734 5.91469L21.8822 5.34567L21.2734 5.91469Z" fill="#1657FF"/>
</svg>
