<svg width="30" height="29" viewBox="0 0 30 29" fill="none" xmlns="http://www.w3.org/2000/svg">
<path fill-rule="evenodd" clip-rule="evenodd" d="M12.758 1.99283C13.675 0.134714 16.3247 0.134715 17.2417 1.99283L20.2576 8.10364C20.3789 8.34959 20.6136 8.52007 20.885 8.55951L27.6287 9.53942C29.6792 9.83739 30.498 12.3573 29.0142 13.8037L24.1344 18.5603C23.938 18.7517 23.8484 19.0275 23.8948 19.2979L25.0467 26.0143C25.397 28.0566 23.2534 29.614 21.4194 28.6497L15.3876 25.4787C15.1449 25.351 14.8548 25.351 14.6121 25.4787L8.58034 28.6497C6.74627 29.614 4.60269 28.0566 4.95296 26.0143L6.10492 19.2979C6.15129 19.0275 6.06166 18.7517 5.86526 18.5603L0.985486 13.8037C-0.498307 12.3573 0.320469 9.83739 2.37102 9.53942L9.1147 8.55951C9.38613 8.52007 9.62076 8.34959 9.74215 8.10364L12.758 1.99283ZM15.7471 2.73044C15.4415 2.11107 14.5583 2.11107 14.2526 2.73044L11.2367 8.84125C10.8726 9.57911 10.1686 10.0905 9.35436 10.2089L2.61068 11.1888C1.92717 11.2881 1.65424 12.1281 2.14884 12.6102L7.02861 17.3668C7.61783 17.9411 7.8867 18.7686 7.7476 19.5796L6.59564 26.296C6.47889 26.9768 7.19341 27.4959 7.80477 27.1745L13.8365 24.0035C14.5648 23.6206 15.4349 23.6206 16.1632 24.0035L22.1949 27.1745C22.8063 27.4959 23.5208 26.9768 23.4041 26.296L22.2521 19.5796C22.113 18.7686 22.3819 17.9411 22.9711 17.3668L27.8509 12.6102C28.3455 12.1281 28.0725 11.2881 27.389 11.1888L20.6453 10.2089C19.8311 10.0905 19.1272 9.57911 18.763 8.84125L15.7471 2.73044Z" fill="#1657FF"/>
</svg>
