<svg width="40" height="40" viewBox="0 0 40 40" fill="none" xmlns="http://www.w3.org/2000/svg">
<path fill-rule="evenodd" clip-rule="evenodd" d="M20 5.83334C16.7783 5.83334 14.1667 8.44501 14.1667 11.6667C14.1667 14.8883 16.7783 17.5 20 17.5C23.2217 17.5 25.8333 14.8883 25.8333 11.6667C25.8333 8.44501 23.2217 5.83334 20 5.83334ZM12.5 11.6667C12.5 7.52454 15.8579 4.16667 20 4.16667C24.1421 4.16667 27.5 7.52454 27.5 11.6667C27.5 15.8088 24.1421 19.1667 20 19.1667C15.8579 19.1667 12.5 15.8088 12.5 11.6667Z" fill="#FF16A2"/>
<path fill-rule="evenodd" clip-rule="evenodd" d="M15.2165 21.7848C16.733 21.1567 18.3585 20.8333 20 20.8333C21.6415 20.8333 23.267 21.1567 24.7835 21.7848C26.3001 22.413 27.6781 23.3338 28.8388 24.4945C29.9996 25.6552 30.9203 27.0332 31.5485 28.5498C32.1767 30.0664 32.5 31.6918 32.5 33.3333C32.5 33.7936 32.1269 34.1667 31.6667 34.1667C31.2064 34.1667 30.8333 33.7936 30.8333 33.3333C30.8333 31.9107 30.5531 30.502 30.0087 29.1876C29.4643 27.8732 28.6663 26.679 27.6603 25.673C26.6544 24.6671 25.4601 23.8691 24.1457 23.3246C22.8314 22.7802 21.4227 22.5 20 22.5C18.5773 22.5 17.1686 22.7802 15.8543 23.3246C14.5399 23.8691 13.3456 24.6671 12.3397 25.673C11.3337 26.679 10.5357 27.8732 9.9913 29.1876C9.44688 30.502 9.16667 31.9107 9.16667 33.3333C9.16667 33.7936 8.79357 34.1667 8.33333 34.1667C7.8731 34.1667 7.5 33.7936 7.5 33.3333C7.5 31.6918 7.82332 30.0664 8.45151 28.5498C9.07969 27.0332 10.0004 25.6552 11.1612 24.4945C12.3219 23.3338 13.6999 22.413 15.2165 21.7848Z" fill="#1657FF"/>
</svg>
