<svg
          className=" flex items-center justify-center  "
          width="17"
          height="4"
          viewBox="0 0 17 4"
          fill="none"
          xmlns="http://www.w3.org/2000/svg"
        >
          <path
            d="M3.89 2C3.89 2.52 3.7 2.96 3.32 3.32C2.96 3.7 2.52 3.89 2 3.89C1.48 3.89 1.03 3.7 0.65 3.32C0.29 2.96 0.11 2.52 0.11 2C0.11 1.48 0.29 1.03 0.65 0.65C1.03 0.27 1.48 0.0799999 2 0.0799999C2.52 0.0799999 2.96 0.27 3.32 0.65C3.7 1.03 3.89 1.48 3.89 2ZM10.3959 2C10.3959 2.52 10.2059 2.96 9.82586 3.32C9.46586 3.7 9.02586 3.89 8.50586 3.89C7.98586 3.89 7.53586 3.7 7.15586 3.32C6.79586 2.96 6.61586 2.52 6.61586 2C6.61586 1.48 6.79586 1.03 7.15586 0.65C7.53586 0.27 7.98586 0.0799999 8.50586 0.0799999C9.02586 0.0799999 9.46586 0.27 9.82586 0.65C10.2059 1.03 10.3959 1.48 10.3959 2ZM16.9017 2C16.9017 2.52 16.7117 2.96 16.3317 3.32C15.9717 3.7 15.5317 3.89 15.0117 3.89C14.4917 3.89 14.0417 3.7 13.6617 3.32C13.3017 2.96 13.1217 2.52 13.1217 2C13.1217 1.48 13.3017 1.03 13.6617 0.65C14.0417 0.27 14.4917 0.0799999 15.0117 0.0799999C15.5317 0.0799999 15.9717 0.27 16.3317 0.65C16.7117 1.03 16.9017 1.48 16.9017 2Z"
            fill="#fff"
          />
        </svg>