<svg width="30" height="30" viewBox="0 0 19 18" fill="none" xmlns="http://www.w3.org/2000/svg">
<path d="M4.37733 14.1281C4.22211 14.097 4.09793 14.066 3.9427 14.0039C3.78748 13.9418 3.6633 13.9108 3.53912 13.8487C3.25971 13.7245 3.01136 13.5693 2.763 13.383C2.26628 13.0415 1.86269 12.5758 1.55225 12.017C1.2418 11.4893 1.05553 10.8684 1.02448 10.2785C0.993437 9.96806 1.02448 9.68865 1.05553 9.3782C1.08657 9.22298 1.11762 9.0988 1.14866 8.94358C1.17971 8.78835 1.2418 8.66417 1.27284 8.50895L1.30389 8.94358C1.30389 9.0988 1.33493 9.22298 1.36598 9.3782C1.39702 9.65761 1.45911 9.93701 1.5212 10.1854C1.64538 10.7131 1.83165 11.2099 2.11105 11.6755C2.39046 12.1412 2.70091 12.5758 3.10449 12.9794C3.29076 13.1657 3.50807 13.352 3.72539 13.5382C3.81852 13.6314 3.9427 13.7245 4.06688 13.8176L4.37733 14.1281ZM4.2842 15.2457C4.19106 15.3078 4.06688 15.3388 3.9427 15.3699C3.81852 15.4009 3.72539 15.432 3.60121 15.432C3.38389 15.463 3.13554 15.4941 2.88718 15.463C2.4215 15.432 1.92478 15.3078 1.5212 15.0905C1.08657 14.8732 0.714033 14.5317 0.465674 14.1281C0.341494 13.9418 0.217314 13.7245 0.12418 13.5072C0.0931347 13.414 0.0620898 13.2899 0.0310449 13.1657C0.0310449 13.0725 0 12.9794 0 12.8552C0.0931347 12.9484 0.155225 13.0415 0.217314 13.1036C0.310449 13.1967 0.372539 13.2899 0.434629 13.352C0.589853 13.5072 0.714033 13.6624 0.869257 13.7866C1.17971 14.066 1.49016 14.3143 1.86269 14.5006C2.20419 14.6869 2.60777 14.8421 2.98031 14.9663C3.16658 15.0284 3.38389 15.0594 3.60121 15.1215C3.69434 15.1526 3.81852 15.1526 3.91166 15.1836C4.06688 15.2146 4.16002 15.2146 4.2842 15.2457ZM11.3003 0.15787C11.4556 0.188915 11.5797 0.251004 11.735 0.313094C11.8902 0.375184 12.0144 0.437274 12.1386 0.499363C12.418 0.654588 12.6663 0.809812 12.9147 0.996082C13.4114 1.36862 13.815 1.86534 14.0944 2.42415C14.3738 2.98296 14.529 3.60385 14.529 4.19371C14.529 4.50416 14.498 4.78356 14.4359 5.09401C14.4048 5.24923 14.3738 5.37341 14.3117 5.52864C14.2496 5.68386 14.2186 5.80804 14.1565 5.93222L14.1254 5.49759C14.1254 5.34237 14.1254 5.21819 14.0944 5.06296L14.0012 4.22475C13.9081 3.69699 13.7218 3.16922 13.4735 2.67251C13.2251 2.17579 12.9147 1.74116 12.5421 1.33758C12.3559 1.12026 12.1386 0.933992 11.9523 0.716678C11.8592 0.623543 11.735 0.530408 11.6108 0.437274L11.3003 0.15787ZM14.0012 0.03369C14.1254 0.0647349 14.2186 0.0957798 14.3117 0.15787C14.4048 0.188915 14.529 0.251004 14.6221 0.313094C14.8084 0.437274 14.9947 0.561453 15.181 0.716678C15.5225 1.02713 15.8019 1.39967 15.9571 1.83429C16.1433 2.26892 16.2054 2.7346 16.1433 3.20027C16.1123 3.41758 16.0502 3.6349 15.9881 3.85221C15.9571 3.94535 15.895 4.06953 15.8639 4.16266C15.8019 4.2558 15.7708 4.34893 15.6777 4.44207V4.13162V3.82117C15.6777 3.60385 15.6466 3.41758 15.6466 3.23131C15.5845 2.82773 15.5225 2.45519 15.3672 2.1137C15.212 1.74116 15.0257 1.43071 14.8084 1.08922C14.6842 0.933992 14.5601 0.747723 14.4359 0.592498C14.3738 0.499364 14.3117 0.437274 14.2186 0.344139C14.1565 0.188914 14.0633 0.0957798 14.0012 0.03369Z" fill="#42ADE2"/>
<path d="M2.48357 4.65938C1.86268 4.93878 1.64536 5.68386 1.92477 6.30476L5.83642 14.4696L8.00956 13.4451L4.09791 5.24923C3.8185 4.62834 3.10447 4.34893 2.48357 4.65938ZM12.7594 11.1478L15.0568 10.0612L10.5863 0.747723C10.2758 0.126826 9.53076 -0.152579 8.87882 0.15787C8.25792 0.468319 7.97852 1.2134 8.28897 1.86534L12.7594 11.1478Z" fill="#FFDD67"/>
<path d="M8.9096 0.126826C8.84751 0.15787 8.78543 0.188915 8.72334 0.251005C9.31319 0.0957806 9.93409 0.375185 10.2135 0.933993L14.684 10.2475L15.0875 10.0612L10.6171 0.747724C10.3066 0.0957807 9.56155 -0.183623 8.9096 0.126826Z" fill="#EBA352"/>
<path d="M8.00952 13.414L10.4 12.2654L5.83638 2.76564C5.52593 2.1137 4.71877 1.80325 4.06682 2.1137C3.41488 2.42415 3.13548 3.23132 3.44592 3.88326L8.00952 13.414Z" fill="#FFDD67"/>
<path d="M4.06704 2.14475C4.00495 2.17579 3.94286 2.20684 3.88077 2.26893C4.47062 2.1137 5.15361 2.39311 5.43301 2.98296L8.2581 8.91254L8.94109 9.31612L5.8366 2.79669C5.52615 2.1137 4.75003 1.8343 4.06704 2.14475Z" fill="#EBA352"/>
<path d="M10.0278 11.5203L12.4182 10.3716L7.85461 0.871909C7.54416 0.219967 6.73699 -0.0904826 6.08505 0.251011C5.43311 0.56146 5.1537 1.36863 5.46415 2.02057L10.0278 11.5203Z" fill="#FFDD67"/>
<path d="M6.08502 0.21996C6.02293 0.251005 5.96084 0.313095 5.89875 0.34414C6.4886 0.188915 7.17159 0.46832 7.45099 1.05817L10.6486 7.76387L11.3316 8.16745L7.85458 0.871903C7.54413 0.188916 6.73696 -0.0904886 6.08502 0.21996ZM2.48381 4.65938C2.42172 4.69043 2.35963 4.72147 2.29754 4.78356C2.85635 4.62834 3.4462 4.90774 3.69456 5.46655L6.02293 10.3406L6.70591 10.7442L4.09814 5.28028C3.81874 4.62834 3.10471 4.34893 2.48381 4.65938Z" fill="#EBA352"/>
<path d="M18.2544 3.72804C17.4162 3.0761 16.0502 3.79013 15.3672 6.02536C14.9016 7.57761 14.8395 8.04328 13.846 8.50895L13.2872 7.36029C13.2872 7.36029 4.47047 11.6134 4.81196 12.2964C4.81196 12.2964 5.86749 15.5872 7.66809 17.1084C10.338 19.4057 16.578 16.9532 16.8574 11.0236C17.0126 7.57761 19.1547 4.44207 18.2544 3.72804Z" fill="#FFDD67"/>
<path d="M18.2545 3.72803C18.0993 3.60386 17.913 3.54177 17.7267 3.51072C17.7578 3.54177 17.8198 3.54177 17.8509 3.57281C18.7822 4.28684 17.8198 5.93222 17.2921 7.42238C16.8575 8.60208 16.4849 9.81283 16.547 10.9925C16.7954 16.146 11.6109 18.5985 8.50638 17.6672C11.5488 18.94 17.1989 16.5185 16.9506 11.1478C16.8885 9.96806 17.23 8.8194 17.6957 7.5776C18.1924 6.08745 19.1548 4.44207 18.2545 3.72803Z" fill="#EBA352"/>
<path d="M14.1257 8.38477C12.2009 8.60209 9.37579 11.3651 11.3627 14.3764C9.90355 11.334 12.294 9.28508 13.8152 8.57104C13.9704 8.44686 14.1257 8.38477 14.1257 8.38477Z" fill="#EBA352"/>
</svg>
